<?xml version="1.0" encoding="utf-8"?>
<!-- Generator: Adobe Illustrator 27.4.0, SVG Export Plug-In . SVG Version: 6.00 Build 0)  -->
<svg version="1.1" xmlns="http://www.w3.org/2000/svg" xmlns:xlink="http://www.w3.org/1999/xlink" x="0px" y="0px"
	 viewBox="0 0 60 60" style="enable-background:new 0 0 60 60;" xml:space="preserve">
<style type="text/css">
	.st0{display:none;}
	.st1{display:inline;fill:#DCEDF9;}
	.st2{display:inline;}
	.st3{fill:none;stroke:#B3B3B3;stroke-width:0.05;stroke-miterlimit:10;}
</style>
<g id="guide" class="st0">
	<rect x="3" y="2.9824829" class="st1" width="54" height="54"/>
	<g class="st2">
		<line class="st3" x1="0" y1="-0.0175171" x2="60" y2="59.9824829"/>
		<line class="st3" x1="0" y1="59.9824829" x2="60" y2="-0.0175171"/>
		<line class="st3" x1="0" y1="29.9824829" x2="60" y2="29.9824829"/>
		<line class="st3" x1="30" y1="-0.0175171" x2="30" y2="59.9824829"/>
		<circle class="st3" cx="30" cy="29.9824829" r="30"/>
		<circle class="st3" cx="30" cy="29.9824829" r="15"/>
	</g>
</g>
<g id="Art_x5F_work">
	<polygon points="37.5768776,42.5829506 36.3356667,39.9398842 23.694067,39.9398842 22.4523678,42.5829506 	"/>
	<g>
		<path d="M17.2849712,47.546032l0.010498,1.1162109c1.0974121,0.0078125,2.1281738,0.4370117,2.9050293,1.2143555
			c0.784668,0.7841797,1.2163086,1.8256836,1.2150879,2.9345703l1.1157227-0.0004883
			c0-1.4057617-0.5473633-2.7280273-1.5419922-3.7231445C19.9993267,48.0977898,18.6836529,47.551403,17.2849712,47.546032z"/>
		<path d="M25.5108013,47.2901726c-0.5827637-0.8662109-1.3032227-1.6308594-2.123291-2.2758789
			c-1.6943359-1.3339844-3.8269043-2.1396484-6.1474609-2.1416016l0.0097656,1.1162109
			c2.168457,0.0048828,4.1535645,0.7954102,5.6916504,2.0947266c0.4311523,0.3642578,0.8266602,0.7680664,1.1813965,1.206543
			c1.2246094,1.5146484,1.9599609,3.4350586,1.9555664,5.5200195l1.114502-0.0004883
			C27.1970806,50.7721062,26.5759869,48.8722038,25.5108013,47.2901726z"/>
		<rect x="3.008848" y="50.7564812" width="15.5766602" height="3.3041992"/>
		<path d="M22.4107037,47.2135124c-1.3430176-1.2358398-3.126709-1.9995117-5.0839844-2.0039062l0.0102539,1.0717773
			c3.5083008,0.0410156,6.4208984,2.9458008,6.4196777,6.4648438l1.1020508-0.0009766
			c-0.0004883-2.1445312-0.9133301-4.0805664-2.3637695-5.4550781L22.4107037,47.2135124z"/>
	</g>
	<path d="M55.5190582,7.4042864v29.168045H4.4867935V7.4042864H55.5190582 M57.0190582,5.9042864H2.9867935v32.168045h54.0322647
		V5.9042864L57.0190582,5.9042864z"/>
</g>
</svg>
