<?xml version="1.0" encoding="utf-8"?>
<!-- Generator: Adobe Illustrator 27.4.0, SVG Export Plug-In . SVG Version: 6.00 Build 0)  -->
<svg version="1.1" xmlns="http://www.w3.org/2000/svg" xmlns:xlink="http://www.w3.org/1999/xlink" x="0px" y="0px"
	 viewBox="0 0 60 60" style="enable-background:new 0 0 60 60;" xml:space="preserve">
<style type="text/css">
	.st0{display:none;}
	.st1{display:inline;fill:#DCEDF9;}
	.st2{display:inline;}
	.st3{fill:none;stroke:#B3B3B3;stroke-width:0.05;stroke-miterlimit:10;}
</style>
<g id="guide" class="st0">
	<rect x="3" y="2.9824829" class="st1" width="54" height="54"/>
	<g class="st2">
		<line class="st3" x1="0" y1="-0.0175171" x2="60" y2="59.9824829"/>
		<line class="st3" x1="0" y1="59.9824829" x2="60" y2="-0.0175171"/>
		<line class="st3" x1="0" y1="29.9824829" x2="60" y2="29.9824829"/>
		<line class="st3" x1="30" y1="-0.0175171" x2="30" y2="59.9824829"/>
		<circle class="st3" cx="30" cy="29.9824829" r="30"/>
		<circle class="st3" cx="30" cy="29.9824829" r="15"/>
	</g>
</g>
<g id="Art_x5F_work">
	<path d="M55,3H5C3.8954468,3,3,3.8953857,3,5v50c0,1.1045532,0.8954468,2,2,2h50c1.1045532,0,2-0.8954468,2-2V5
		C57,3.8953857,56.1045532,3,55,3z M52.9093628,51.2869873c0,0.9405518-0.7624512,1.7030029-1.7032471,1.7030029H8.6268311
		c-0.9408569,0-1.7033081-0.7624512-1.7033081-1.7030029V8.7073975c0-0.9405518,0.7624512-1.7032471,1.7033081-1.7032471h35.5566406
		l8.7258911,8.7258911V51.2869873z M52.9093628,12.3267212L47.586792,7.0041504h5.3225708V12.3267212z"/>
	<g id="레이어_2">
		<path d="M43.5621948,8.5041504H8.6268311c-0.1121216,0-0.2033081,0.0911865-0.2033081,0.2032471v42.5795898
			c0,0.1119385,0.0911865,0.2030029,0.2033081,0.2030029h42.5792847c0.1120605,0,0.2032471-0.0910645,0.2032471-0.2030029
			V16.3513794L43.5621948,8.5041504z M39.039978,16.5115356l2.2490234,6.7861328l2.2363281-6.7861328h1.8330078L42.1732788,26.00177
			h-1.78125l-3.1850586-9.4902344H39.039978z M29.7059937,16.5115356h6.8510742v1.6904297h-2.5478516V26.00177h-1.7680664
			v-7.7998047h-2.5351562V16.5115356z M33.06604,34.8723755c0.0625,0.1523438,0.1503906,0.2861328,0.2631836,0.4003906
			c0.112793,0.1152344,0.2475586,0.2050781,0.4038086,0.2714844c0.15625,0.0654297,0.3266602,0.0986328,0.5107422,0.0986328
			c0.284668,0,0.5214844-0.0742188,0.7109375-0.2236328s0.3188477-0.3496094,0.3881836-0.5996094h-1.2138672v-0.6767578h1.9746094
			v0.28125c0,0.2568359-0.043457,0.5009766-0.1303711,0.7314453c-0.0869141,0.2314453-0.2109375,0.4335938-0.3725586,0.6074219
			s-0.3569336,0.3115234-0.5859375,0.4140625c-0.2294922,0.1025391-0.4863281,0.1533203-0.7709961,0.1533203
			c-0.2988281,0-0.5688477-0.0517578-0.8100586-0.15625c-0.2416992-0.1035156-0.4492188-0.2451172-0.6230469-0.4248047
			c-0.1733398-0.1787109-0.3071289-0.3857422-0.4008789-0.6220703s-0.140625-0.4863281-0.140625-0.75
			c0-0.2714844,0.0483398-0.5253906,0.1459961-0.7636719c0.097168-0.2373047,0.2314453-0.4443359,0.4033203-0.6201172
			c0.1723633-0.1748047,0.3769531-0.3144531,0.6152344-0.4169922c0.237793-0.1015625,0.4970703-0.1533203,0.7788086-0.1533203
			c0.1977539,0,0.3837891,0.0244141,0.5571289,0.0732422c0.1738281,0.0488281,0.3344727,0.1152344,0.4819336,0.2001953
			c0.1479492,0.0849609,0.2797852,0.1875,0.3959961,0.3076172c0.1166992,0.1201172,0.2143555,0.2509766,0.2944336,0.3935547
			l-0.625,0.375c-0.1181641-0.21875-0.2685547-0.3837891-0.4506836-0.4951172
			c-0.1826172-0.1113281-0.3984375-0.1669922-0.6489258-0.1669922c-0.1767578,0-0.3413086,0.0341797-0.4921875,0.1015625
			c-0.1508789,0.0683594-0.2832031,0.1591797-0.3959961,0.2734375c-0.112793,0.1152344-0.2006836,0.2490234-0.2631836,0.4013672
			c-0.0625,0.1533203-0.09375,0.3164062-0.09375,0.4902344C32.97229,34.5540161,33.00354,34.7190552,33.06604,34.8723755z
			 M30.706665,32.4749146v3.8037109h-0.7089844v-3.8037109H30.706665z M27.6427002,32.4749146h0.7138672l1.3544922,3.8037109
			h-0.7397461l-0.234375-0.6777344h-1.4746094l-0.234375,0.6777344H26.288208L27.6427002,32.4749146z M23.8300171,16.5115356
			h1.7680664V26.00177h-1.7680664V16.5115356z M17.8764038,16.5115356h1.7807617l3.3798828,9.4902344h-1.8457031
			l-0.5849609-1.6904297h-3.6791992L16.3422241,26.00177h-1.8461914L17.8764038,16.5115356z M17.5443726,41.1428833
			c-0.0825195,0.1982422-0.1962891,0.3691406-0.3408203,0.5146484c-0.1450195,0.1445312-0.3173828,0.2587891-0.5175781,0.34375
			c-0.2006836,0.0849609-0.418457,0.1269531-0.6542969,0.1269531h-0.7006836v1.2958984h-0.8432617v-4.5263672h1.550293
			c0.2353516,0,0.4526367,0.0429688,0.6508789,0.1279297c0.1982422,0.0839844,0.3696289,0.1992188,0.5146484,0.34375
			c0.1445312,0.1445312,0.2583008,0.3154297,0.3408203,0.5117188s0.1240234,0.40625,0.1240234,0.6289062
			C17.668396,40.7337036,17.6268921,40.9436646,17.5443726,41.1428833z M17.6817627,36.2786255h-0.7553711l-1.6933594-2.6728516
			v2.6728516h-0.7084961v-3.8037109h0.8022461l1.6464844,2.5898438v-2.5898438h0.7084961V36.2786255z M18.1295166,33.6165161
			c0.1005859-0.2363281,0.2387695-0.4433594,0.4140625-0.6201172c0.1757812-0.1767578,0.3813477-0.3173828,0.6176758-0.4199219
			c0.2363281-0.1015625,0.4897461-0.1533203,0.7607422-0.1533203c0.0018311,0,0.00354,0.0005493,0.0053711,0.0005493
			s0.00354-0.0005493,0.0053711-0.0005493c0.2709961,0,0.5244141,0.0517578,0.7607422,0.1533203
			c0.2358398,0.1025391,0.4423828,0.2431641,0.6196289,0.4199219s0.315918,0.3837891,0.4169922,0.6201172
			c0.1005859,0.2363281,0.1508789,0.4892578,0.1508789,0.7607422c0,0.2392578-0.0390625,0.4638672-0.1171875,0.671875
			s-0.1850586,0.3974609-0.3203125,0.5673828l0.5107422,0.6621094h-0.0107422h-0.8544922h-0.0107422l-1.4326172-1.8701172h0.0107422
			h0.8383789h0.0107422l0.4727173,0.6162109c0.0568237-0.0952148,0.1029663-0.194519,0.1366577-0.3017578
			c0.034668-0.109375,0.0522461-0.2246094,0.0522461-0.3457031c0-0.1738281-0.0322266-0.3369141-0.0966797-0.4902344
			c-0.0639648-0.1523438-0.152832-0.2851562-0.265625-0.3984375c-0.112793-0.1123047-0.2446289-0.2021484-0.3959961-0.2685547
			c-0.149231-0.0646973-0.3102417-0.0968018-0.4814453-0.0975342c-0.1716919,0.0007324-0.3327026,0.0328369-0.4819336,0.0975342
			c-0.1508789,0.0664062-0.2822266,0.15625-0.3935547,0.2685547c-0.1108398,0.1132812-0.1987305,0.2460938-0.2626953,0.3984375
			c-0.0644531,0.1533203-0.0966797,0.3164062-0.0966797,0.4902344s0.0322266,0.3369141,0.0966797,0.4892578
			c0.0639648,0.1533203,0.1518555,0.2861328,0.2626953,0.3984375c0.1113281,0.1132812,0.2426758,0.203125,0.3935547,0.2685547
			c0.1494751,0.0657959,0.31073,0.0971069,0.482666,0.0977173c0.1228027-0.0006104,0.2439575-0.0182495,0.3635254-0.0557251
			l0.0010986,0.0014648c0.0031738-0.0009766,0.0064697-0.0004883,0.0096436-0.0014648l0.4428711,0.578125
			c-0.2568359,0.1181641-0.527832,0.1767578-0.8125,0.1767578c-0.0019531,0-0.0036621-0.0005493-0.0056152-0.0005493
			c-0.00177,0-0.0033569,0.0005493-0.005127,0.0005493c-0.2709961,0-0.5244141-0.0507812-0.7607422-0.1533203
			s-0.4418945-0.2412109-0.6176758-0.4169922c-0.175293-0.1748047-0.3134766-0.3818359-0.4140625-0.6201172
			c-0.1005859-0.2373047-0.1508789-0.4921875-0.1508789-0.7626953
			C17.9786377,34.1057739,18.0289307,33.8528442,18.1295166,33.6165161z M20.1547241,40.7454224
			c-0.0620117-0.0410156-0.1313477-0.0751953-0.2080078-0.1015625c-0.0766602-0.0273438-0.1743164-0.0410156-0.2944336-0.0410156
			c-0.2436523,0-0.4287109,0.0693359-0.5546875,0.2080078c-0.1264648,0.1386719-0.1894531,0.3652344-0.1894531,0.6787109v1.9345703
			H18.071228v-3.6269531h0.8310547v0.5390625c0.1650391-0.359375,0.4750977-0.5390625,0.9296875-0.5390625
			c0.1323242,0,0.2514648,0.0146484,0.3564453,0.0429688c0.1054688,0.0292969,0.199707,0.0664062,0.2822266,0.1123047
			L20.1547241,40.7454224z M24.1132202,42.3479614c-0.097168,0.2294922-0.2314453,0.4306641-0.402832,0.6015625
			c-0.1713867,0.171875-0.3710938,0.3066406-0.5981445,0.4033203c-0.2275391,0.0966797-0.4711914,0.1455078-0.7319336,0.1455078
			c-0.2602539,0-0.5053711-0.0488281-0.734375-0.1455078c-0.2294922-0.0966797-0.4291992-0.2314453-0.5986328-0.4033203
			c-0.1694336-0.1708984-0.3027344-0.3720703-0.3999023-0.6015625c-0.097168-0.2285156-0.1455078-0.4736328-0.1455078-0.734375
			c0-0.2646484,0.0483398-0.5117188,0.1455078-0.7412109c0.097168-0.2285156,0.2304688-0.4287109,0.3999023-0.5976562
			c0.1694336-0.1699219,0.3691406-0.3037109,0.5986328-0.4033203c0.2290039-0.0986328,0.4741211-0.1484375,0.734375-0.1484375
			c0.2607422,0,0.5043945,0.0498047,0.7319336,0.1484375c0.2270508,0.0996094,0.4267578,0.2333984,0.5981445,0.4033203
			c0.1713867,0.1689453,0.3056641,0.3691406,0.402832,0.5976562c0.097168,0.2294922,0.1459961,0.4765625,0.1459961,0.7412109
			C24.2592163,41.8743286,24.2103882,42.1194458,24.1132202,42.3479614z M23.4903564,36.3303833
			c-0.0038452,0-0.0064087-0.0014038-0.0102539-0.0014038s-0.0064087,0.0014038-0.0102539,0.0014038
			c-0.434082,0-0.7675781-0.1054688-1-0.3173828c-0.2329102-0.2119141-0.3491211-0.5019531-0.3491211-0.8701172
			c0-0.1982422,0.0405273-0.3710938,0.1225586-0.5185547c0.081543-0.1474609,0.1967773-0.2714844,0.3461914-0.3720703
			c-0.1074219-0.0908203-0.190918-0.1972656-0.25-0.3203125c-0.059082-0.1240234-0.0883789-0.265625-0.0883789-0.4248047
			c0-0.1630859,0.0292969-0.3115234,0.0883789-0.4453125s0.1430664-0.2480469,0.2524414-0.3417969
			s0.2407227-0.1669922,0.3935547-0.21875s0.3232422-0.078125,0.5107422-0.078125
			c0.0037231,0,0.0064697,0.0015869,0.0101929,0.0015869c0.0037842,0,0.0065308-0.0015869,0.0103149-0.0015869
			c0.184082,0,0.3515625,0.0263672,0.5024414,0.078125c0.1513672,0.0517578,0.2817383,0.125,0.3911133,0.21875
			s0.1933594,0.2080078,0.2524414,0.3417969s0.0883789,0.2822266,0.0883789,0.4453125s-0.0317383,0.3066406-0.0961914,0.4296875
			s-0.1518555,0.2304688-0.2631836,0.3203125c0.1459961,0.1005859,0.2587891,0.2246094,0.3388672,0.3720703
			c0.0795898,0.1484375,0.1196289,0.3193359,0.1196289,0.5136719c0,0.3681641-0.1191406,0.6582031-0.3569336,0.8701172
			S23.9210205,36.3303833,23.4903564,36.3303833z M27.8925171,42.8196411
			c-0.1113281,0.1386719-0.2407227,0.2587891-0.387207,0.359375c-0.1469727,0.1015625-0.3110352,0.1796875-0.4931641,0.2353516
			c-0.1816406,0.0566406-0.3779297,0.0839844-0.5888672,0.0839844c-0.2646484,0-0.5117188-0.0498047-0.7407227-0.1484375
			c-0.2294922-0.0996094-0.4291992-0.2333984-0.5986328-0.4033203c-0.1694336-0.1689453-0.3027344-0.3691406-0.3999023-0.5986328
			c-0.097168-0.2285156-0.1455078-0.4736328-0.1455078-0.734375c0-0.2646484,0.0483398-0.5117188,0.1455078-0.7412109
			c0.097168-0.2285156,0.2304688-0.4296875,0.3999023-0.6005859c0.1694336-0.171875,0.3691406-0.3066406,0.5986328-0.4033203
			c0.2290039-0.0966797,0.4760742-0.1455078,0.7407227-0.1455078c0.2026367,0,0.3935547,0.0273438,0.5737305,0.0830078
			c0.1796875,0.0566406,0.34375,0.1337891,0.4926758,0.2333984c0.1489258,0.0986328,0.2788086,0.2167969,0.390625,0.3525391
			c0.1118164,0.1367188,0.2026367,0.2880859,0.2729492,0.453125L27.402771,41.161438
			c-0.0825195-0.1982422-0.2094727-0.3564453-0.3813477-0.4746094c-0.1713867-0.1181641-0.3686523-0.1767578-0.5917969-0.1767578
			c-0.1533203,0-0.2944336,0.0292969-0.4248047,0.0869141s-0.2441406,0.1367188-0.3408203,0.2353516
			c-0.097168,0.0996094-0.1728516,0.2158203-0.2265625,0.3505859c-0.0537109,0.1337891-0.0805664,0.2783203-0.0805664,0.4306641
			c0,0.1494141,0.0268555,0.2910156,0.0805664,0.4248047c0.0537109,0.1347656,0.1293945,0.2509766,0.2265625,0.3505859
			c0.0966797,0.0986328,0.2104492,0.1777344,0.3408203,0.2353516s0.2739258,0.0869141,0.4306641,0.0869141
			c0.2358398,0,0.4375-0.0634766,0.6044922-0.1894531c0.1674805-0.1259766,0.2924805-0.2880859,0.3754883-0.4863281l0.75,0.3222656
			C28.0951538,42.5276489,28.0043335,42.6809692,27.8925171,42.8196411z M32.0834351,41.9055786h-2.9511719
			c0.0576172,0.2558594,0.184082,0.4628906,0.3779297,0.6191406c0.1943359,0.1572266,0.4404297,0.2363281,0.7382812,0.2363281
			c0.2353516,0,0.4399414-0.0585938,0.6137695-0.1738281c0.1733398-0.1162109,0.3037109-0.2705078,0.390625-0.4648438
			l0.6879883,0.3964844c-0.1572266,0.2939453-0.3774414,0.5302734-0.6601562,0.7099609
			c-0.2832031,0.1796875-0.6274414,0.2695312-1.0322266,0.2695312c-0.2856445,0-0.5458984-0.0488281-0.78125-0.1455078
			c-0.2358398-0.0966797-0.4375-0.2304688-0.6044922-0.4003906c-0.1674805-0.1689453-0.2978516-0.3681641-0.390625-0.5976562
			c-0.0932617-0.2294922-0.1396484-0.4746094-0.1396484-0.7353516c0-0.2636719,0.0483398-0.5117188,0.1455078-0.7431641
			s0.2304688-0.4326172,0.3999023-0.6015625c0.1694336-0.1699219,0.3691406-0.3037109,0.5986328-0.4033203
			c0.2290039-0.0986328,0.4760742-0.1484375,0.7407227-0.1484375c0.2685547,0,0.5175781,0.0458984,0.7470703,0.1396484
			c0.2294922,0.0927734,0.4267578,0.2226562,0.5922852,0.390625c0.1650391,0.1669922,0.2944336,0.3642578,0.387207,0.5917969
			c0.0932617,0.2275391,0.1396484,0.4755859,0.1396484,0.7441406V41.9055786z M35.2206421,42.7141724
			c-0.0576172,0.1386719-0.1474609,0.2666016-0.2695312,0.3847656c-0.1220703,0.1171875-0.2758789,0.2138672-0.4619141,0.2880859
			s-0.4091797,0.1113281-0.6694336,0.1113281c-0.4008789,0-0.7338867-0.0751953-0.9985352-0.2265625
			c-0.2641602-0.1503906-0.46875-0.3681641-0.6137695-0.6533203l0.7753906-0.3720703
			c0.0864258,0.1689453,0.2045898,0.2998047,0.3530273,0.390625c0.1489258,0.0908203,0.3227539,0.1357422,0.5209961,0.1357422
			c0.206543,0,0.3613281-0.0429688,0.4648438-0.1298828s0.1552734-0.1904297,0.1552734-0.3095703
			c0-0.0664062-0.0239258-0.1201172-0.0712891-0.1611328c-0.0478516-0.0419922-0.1098633-0.078125-0.1860352-0.109375
			c-0.0766602-0.0302734-0.1665039-0.0566406-0.2700195-0.0771484c-0.1030273-0.0205078-0.2104492-0.0429688-0.3222656-0.0683594
			c-0.1572266-0.0283203-0.3110352-0.0673828-0.4619141-0.1142578c-0.1508789-0.0478516-0.2861328-0.1113281-0.40625-0.1923828
			c-0.1196289-0.0810547-0.2167969-0.1835938-0.2910156-0.3095703c-0.074707-0.1269531-0.1118164-0.2841797-0.1118164-0.4746094
			c0-0.1445312,0.0332031-0.2841797,0.0991211-0.4189453c0.0664062-0.1337891,0.1611328-0.2529297,0.2851562-0.3564453
			c0.1240234-0.1025391,0.2739258-0.1845703,0.449707-0.2451172c0.1757812-0.0595703,0.3730469-0.0898438,0.5917969-0.0898438
			c0.3637695,0,0.6665039,0.0673828,0.9086914,0.2021484c0.2416992,0.1337891,0.4326172,0.3173828,0.5732422,0.5488281
			l-0.7128906,0.359375c-0.0742188-0.1279297-0.1777344-0.2294922-0.3100586-0.3037109s-0.2851562-0.1123047-0.4589844-0.1123047
			c-0.1982422,0-0.3447266,0.0400391-0.4399414,0.1181641c-0.0952148,0.0791016-0.1425781,0.1699219-0.1425781,0.2724609
			c0,0.1201172,0.0703125,0.2060547,0.2109375,0.2578125c0.1401367,0.0517578,0.347168,0.1064453,0.6196289,0.1640625
			c0.1489258,0.0332031,0.2988281,0.0722656,0.449707,0.1181641c0.1508789,0.0449219,0.2880859,0.1083984,0.4121094,0.1884766
			c0.1240234,0.0810547,0.2241211,0.1845703,0.3007812,0.3105469s0.1147461,0.2841797,0.1147461,0.4746094
			C35.3075562,42.442688,35.2787476,42.5755005,35.2206421,42.7141724z M38.4940796,42.7141724
			c-0.0576172,0.1386719-0.1474609,0.2666016-0.2695312,0.3847656c-0.1220703,0.1171875-0.2758789,0.2138672-0.4619141,0.2880859
			s-0.4091797,0.1113281-0.6694336,0.1113281c-0.4008789,0-0.7338867-0.0751953-0.9985352-0.2265625
			c-0.2641602-0.1503906-0.46875-0.3681641-0.6137695-0.6533203l0.7753906-0.3720703
			c0.0864258,0.1689453,0.2045898,0.2998047,0.3530273,0.390625c0.1489258,0.0908203,0.3227539,0.1357422,0.5209961,0.1357422
			c0.206543,0,0.3613281-0.0429688,0.4648438-0.1298828s0.1552734-0.1904297,0.1552734-0.3095703
			c0-0.0664062-0.0239258-0.1201172-0.0712891-0.1611328c-0.0478516-0.0419922-0.1098633-0.078125-0.1860352-0.109375
			c-0.0766602-0.0302734-0.1665039-0.0566406-0.2700195-0.0771484c-0.1030273-0.0205078-0.2104492-0.0429688-0.3222656-0.0683594
			c-0.1572266-0.0283203-0.3110352-0.0673828-0.4619141-0.1142578c-0.1508789-0.0478516-0.2861328-0.1113281-0.40625-0.1923828
			c-0.1196289-0.0810547-0.2167969-0.1835938-0.2910156-0.3095703c-0.074707-0.1269531-0.1118164-0.2841797-0.1118164-0.4746094
			c0-0.1445312,0.0332031-0.2841797,0.0991211-0.4189453c0.0664062-0.1337891,0.1611328-0.2529297,0.2851562-0.3564453
			c0.1240234-0.1025391,0.2739258-0.1845703,0.449707-0.2451172c0.1757812-0.0595703,0.3730469-0.0898438,0.5917969-0.0898438
			c0.3637695,0,0.6665039,0.0673828,0.9086914,0.2021484c0.2416992,0.1337891,0.4326172,0.3173828,0.5732422,0.5488281
			l-0.7128906,0.359375c-0.0742188-0.1279297-0.1777344-0.2294922-0.3100586-0.3037109s-0.2851562-0.1123047-0.4589844-0.1123047
			c-0.1982422,0-0.3447266,0.0400391-0.4399414,0.1181641c-0.0952148,0.0791016-0.1425781,0.1699219-0.1425781,0.2724609
			c0,0.1201172,0.0703125,0.2060547,0.2109375,0.2578125c0.1401367,0.0517578,0.347168,0.1064453,0.6196289,0.1640625
			c0.1489258,0.0332031,0.2988281,0.0722656,0.449707,0.1181641c0.1508789,0.0449219,0.2880859,0.1083984,0.4121094,0.1884766
			c0.1240234,0.0810547,0.2241211,0.1845703,0.3007812,0.3105469s0.1147461,0.2841797,0.1147461,0.4746094
			C38.5809937,42.442688,38.5521851,42.5755005,38.4940796,42.7141724z M37.947876,36.3411255
			c-0.2392578,0-0.4584961-0.0410156-0.65625-0.1220703c-0.1977539-0.0820312-0.3671875-0.1943359-0.5078125-0.3359375
			c-0.140625-0.1425781-0.25-0.3105469-0.3286133-0.5029297c-0.078125-0.1933594-0.1171875-0.3984375-0.1171875-0.6171875
			c0-0.2226562,0.0410156-0.4306641,0.1225586-0.6259766c0.081543-0.1943359,0.1938477-0.3623047,0.3359375-0.5048828
			c0.1425781-0.1425781,0.3100586-0.2558594,0.5029297-0.3388672s0.4003906-0.125,0.6225586-0.125
			c0.2255859,0,0.4350586,0.0390625,0.6279297,0.1171875s0.3583984,0.1875,0.4975586,0.328125
			c0.1386719,0.140625,0.2475586,0.3066406,0.3256836,0.4980469c0.078125,0.1904297,0.1171875,0.3994141,0.1171875,0.625v0.265625
			H37.010376c0.0483398,0.2148438,0.1542969,0.3886719,0.3178711,0.5205078
			c0.1630859,0.1328125,0.3696289,0.1982422,0.6196289,0.1982422c0.1982422,0,0.3701172-0.0488281,0.5161133-0.1455078
			c0.1459961-0.0976562,0.2553711-0.2275391,0.328125-0.390625l0.578125,0.3330078
			c-0.1318359,0.2470703-0.3168945,0.4453125-0.5546875,0.5966797S38.2886963,36.3411255,37.947876,36.3411255z
			 M42.434021,42.3479614c-0.097168,0.2294922-0.2314453,0.4306641-0.402832,0.6015625
			c-0.1713867,0.171875-0.3710938,0.3066406-0.5981445,0.4033203c-0.2275391,0.0966797-0.4711914,0.1455078-0.7319336,0.1455078
			c-0.2602539,0-0.5053711-0.0488281-0.734375-0.1455078c-0.2294922-0.0966797-0.4291992-0.2314453-0.5986328-0.4033203
			c-0.1694336-0.1708984-0.3027344-0.3720703-0.3999023-0.6015625c-0.097168-0.2285156-0.1455078-0.4736328-0.1455078-0.734375
			c0-0.2646484,0.0483398-0.5117188,0.1455078-0.7412109c0.097168-0.2285156,0.2304688-0.4287109,0.3999023-0.5976562
			c0.1694336-0.1699219,0.3691406-0.3037109,0.5986328-0.4033203c0.2290039-0.0986328,0.4741211-0.1484375,0.734375-0.1484375
			c0.2607422,0,0.5043945,0.0498047,0.7319336,0.1484375c0.2270508,0.0996094,0.4267578,0.2333984,0.5981445,0.4033203
			c0.1713867,0.1689453,0.3056641,0.3691406,0.402832,0.5976562c0.097168,0.2294922,0.1459961,0.4765625,0.1459961,0.7412109
			C42.5800171,41.8743286,42.531189,42.1194458,42.434021,42.3479614z M42.5855713,36.2786255h-0.7138672v-1.7353516
			c0-0.2353516-0.0576172-0.4228516-0.171875-0.5595703c-0.1147461-0.1376953-0.2866211-0.2060547-0.5161133-0.2060547
			c-0.2011719,0-0.3706055,0.0712891-0.5078125,0.2138672s-0.2055664,0.3476562-0.2055664,0.6142578v1.6728516h-0.7036133
			v-3.0478516h0.6982422v0.375c0.1005859-0.1318359,0.2285156-0.2373047,0.3828125-0.3173828
			c0.1547852-0.0800781,0.3310547-0.1201172,0.5288086-0.1201172c0.378418,0,0.6748047,0.1142578,0.8881836,0.34375
			c0.2138672,0.2294922,0.3208008,0.5488281,0.3208008,0.9589844V36.2786255z M45.0292358,40.7454224
			c-0.0620117-0.0410156-0.1313477-0.0751953-0.2080078-0.1015625c-0.0766602-0.0273438-0.1743164-0.0410156-0.2944336-0.0410156
			c-0.2436523,0-0.4287109,0.0693359-0.5546875,0.2080078c-0.1264648,0.1386719-0.1894531,0.3652344-0.1894531,0.6787109v1.9345703
			h-0.8369141v-3.6269531h0.8310547v0.5390625c0.1650391-0.359375,0.4750977-0.5390625,0.9296875-0.5390625
			c0.1323242,0,0.2514648,0.0146484,0.3564453,0.0429688c0.1054688,0.0292969,0.199707,0.0664062,0.2822266,0.1123047
			L45.0292358,40.7454224z M45.3624268,35.6008911v0.6777344h-2.4228516v-0.6669922
			c0-0.1630859,0.0292969-0.3105469,0.0888672-0.4423828c0.0585938-0.1318359,0.1362305-0.2529297,0.2314453-0.3623047
			c0.0957031-0.109375,0.203125-0.2089844,0.3232422-0.2998047c0.1196289-0.0898438,0.2387695-0.1748047,0.3569336-0.2548828
			c0.09375-0.0664062,0.184082-0.1298828,0.2709961-0.1904297c0.0864258-0.0605469,0.1630859-0.1220703,0.2290039-0.1826172
			s0.1191406-0.1230469,0.1591797-0.1875c0.0395508-0.0644531,0.0595703-0.1328125,0.0595703-0.2060547
			c0-0.125-0.0439453-0.2314453-0.1328125-0.3203125c-0.0883789-0.0878906-0.2177734-0.1328125-0.3881836-0.1328125
			c-0.1665039,0-0.3027344,0.0507812-0.4086914,0.1513672s-0.1918945,0.2314453-0.2583008,0.390625l-0.609375-0.3076172
			c0.1181641-0.2597656,0.2841797-0.4658203,0.4975586-0.6171875c0.2138672-0.1513672,0.4750977-0.2265625,0.7841797-0.2265625
			c0.190918,0,0.362793,0.0283203,0.515625,0.0830078c0.152832,0.0556641,0.2832031,0.1318359,0.3911133,0.2275391
			c0.1074219,0.0947266,0.1889648,0.2080078,0.2446289,0.3378906c0.0556641,0.1308594,0.0834961,0.2705078,0.0834961,0.4199219
			c0,0.1523438-0.027832,0.2880859-0.0834961,0.40625s-0.128418,0.2265625-0.21875,0.3251953
			c-0.090332,0.0996094-0.1918945,0.1904297-0.3046875,0.2734375c-0.1132812,0.0839844-0.2265625,0.1640625-0.3413086,0.2402344
			c-0.1010742,0.0654297-0.1972656,0.1308594-0.2890625,0.1953125c-0.0922852,0.0644531-0.1748047,0.1308594-0.2475586,0.2001953
			c-0.0732422,0.0693359-0.1323242,0.1425781-0.1772461,0.21875c-0.0454102,0.0771484-0.0678711,0.1601562-0.0678711,0.25
			H45.3624268z"/>
		<polygon points="18.7733765,19.0203247 17.5253296,22.6218872 20.0214233,22.6218872 		"/>
		<path d="M41.4515991,40.8323364c-0.0952148-0.0986328-0.2070312-0.1777344-0.3349609-0.2353516
			s-0.2666016-0.0869141-0.4155273-0.0869141c-0.1484375,0-0.2880859,0.0292969-0.418457,0.0869141
			c-0.1298828,0.0576172-0.2416992,0.1367188-0.3344727,0.2353516c-0.0932617,0.0996094-0.1665039,0.2158203-0.2202148,0.3505859
			c-0.0537109,0.1337891-0.0805664,0.2783203-0.0805664,0.4306641c0,0.1494141,0.0268555,0.2910156,0.0805664,0.4248047
			c0.0537109,0.1347656,0.1269531,0.2509766,0.2202148,0.3505859c0.0927734,0.0986328,0.2045898,0.1777344,0.3344727,0.2353516
			c0.1303711,0.0576172,0.2700195,0.0869141,0.418457,0.0869141c0.1489258,0,0.2875977-0.0292969,0.4155273-0.0869141
			s0.2397461-0.1367188,0.3349609-0.2353516c0.0947266-0.0996094,0.1694336-0.2158203,0.2231445-0.3505859
			c0.0537109-0.1337891,0.0805664-0.2753906,0.0805664-0.4248047c0-0.1523438-0.0268555-0.296875-0.0805664-0.4306641
			C41.6210327,41.0481567,41.5463257,40.9319458,41.4515991,40.8323364z"/>
		<path d="M23.1307983,40.8323364c-0.0952148-0.0986328-0.2070312-0.1777344-0.3349609-0.2353516
			s-0.2666016-0.0869141-0.4155273-0.0869141c-0.1484375,0-0.2880859,0.0292969-0.418457,0.0869141
			c-0.1298828,0.0576172-0.2416992,0.1367188-0.3344727,0.2353516c-0.0932617,0.0996094-0.1665039,0.2158203-0.2202148,0.3505859
			c-0.0537109,0.1337891-0.0805664,0.2783203-0.0805664,0.4306641c0,0.1494141,0.0268555,0.2910156,0.0805664,0.4248047
			c0.0537109,0.1347656,0.1269531,0.2509766,0.2202148,0.3505859c0.0927734,0.0986328,0.2045898,0.1777344,0.3344727,0.2353516
			c0.1303711,0.0576172,0.2700195,0.0869141,0.418457,0.0869141c0.1489258,0,0.2875977-0.0292969,0.4155273-0.0869141
			s0.2397461-0.1367188,0.3349609-0.2353516c0.0947266-0.0996094,0.1694336-0.2158203,0.2231445-0.3505859
			c0.0537109-0.1337891,0.0805664-0.2753906,0.0805664-0.4248047c0-0.1523438-0.0268555-0.296875-0.0805664-0.4306641
			C23.3002319,41.0481567,23.2255249,40.9319458,23.1307983,40.8323364z"/>
		<path d="M16.5834351,39.9212036c-0.0742188-0.0742188-0.1630859-0.1337891-0.2666016-0.1767578
			s-0.2167969-0.0654297-0.3408203-0.0654297h-0.6450195v1.6679688h0.6450195c0.1240234,0,0.2373047-0.0214844,0.3408203-0.0654297
			c0.1035156-0.0429688,0.1923828-0.1025391,0.2666016-0.1796875c0.0742188-0.0761719,0.1323242-0.1650391,0.1738281-0.2666016
			c0.0410156-0.1005859,0.0620117-0.2089844,0.0620117-0.3251953c0-0.1152344-0.0209961-0.2236328-0.0620117-0.3251953
			C16.7157593,40.083313,16.6576538,39.9954224,16.5834351,39.9212036z"/>
		<path d="M30.2172241,40.4602661c-0.2519531,0-0.4702148,0.0683594-0.6542969,0.2050781
			c-0.1835938,0.1357422-0.3129883,0.3164062-0.387207,0.5390625h2.0581055
			c-0.0620117-0.2441406-0.1816406-0.4287109-0.359375-0.5546875S30.477478,40.4602661,30.2172241,40.4602661z"/>
		<path d="M23.5010986,33.9866333c0.1977539,0,0.3481445-0.046875,0.4506836-0.140625
			c0.1020508-0.09375,0.1533203-0.2070312,0.1533203-0.3388672s-0.050293-0.2460938-0.1508789-0.3417969
			c-0.1005859-0.0947266-0.2451172-0.1425781-0.4326172-0.1425781c-0.190918,0-0.3393555,0.0478516-0.4453125,0.1425781
			c-0.105957,0.0957031-0.1586914,0.2099609-0.1586914,0.3417969c0,0.1347656,0.0473633,0.2490234,0.1430664,0.3408203
			S23.3028564,33.9866333,23.5010986,33.9866333z"/>
		<path d="M23.5059814,34.5803833c-0.222168,0-0.3916016,0.0546875-0.5078125,0.1640625s-0.1743164,0.2421875-0.1743164,0.3984375
			s0.0537109,0.2890625,0.1611328,0.3984375c0.1079102,0.109375,0.2763672,0.1640625,0.5053711,0.1640625
			c0.2260742,0,0.3959961-0.0546875,0.5107422-0.1640625s0.171875-0.2421875,0.171875-0.3984375
			s-0.0566406-0.2890625-0.1694336-0.3984375S23.7247314,34.5803833,23.5059814,34.5803833z"/>
		<polygon points="28.5423584,34.9241333 28.043457,33.4840088 27.5440674,34.9241333 		"/>
		<path d="M38.3148193,33.8329468c-0.0910645-0.0258179-0.1903076-0.0391846-0.2982788-0.0391846
			c-0.2119141,0-0.3950195,0.0576172-0.5498047,0.171875c-0.1526489,0.1130371-0.2597046,0.2629395-0.3225098,0.4477539h1.713501
			c-0.0521851-0.2047729-0.152771-0.3599854-0.302063-0.4653931C38.4837036,33.8967285,38.402771,33.859436,38.3148193,33.8329468z"
			/>
		<path d="M22.9176025,33.5071411c0,0.1347656,0.0473633,0.2490234,0.1430664,0.3408203
			c0.093811,0.0899658,0.237854,0.135437,0.4301758,0.1372681c0.1920166-0.00177,0.3399048-0.0473022,0.4404297-0.1392212
			c0.1020508-0.09375,0.1533203-0.2070312,0.1533203-0.3388672s-0.050293-0.2460938-0.1508789-0.3417969
			c-0.0985107-0.0927734-0.2405396-0.1392212-0.4224854-0.1411133c-0.1853638,0.0018921-0.3311157,0.0483398-0.4349365,0.1411133
			C22.9703369,33.2610474,22.9176025,33.3753052,22.9176025,33.5071411z"/>
		<polygon points="28.0025635,33.4807739 27.5020752,34.9241333 28.5025635,34.9241333 		"/>
		<path d="M38.4742432,33.9475708c-0.1494141-0.1064453-0.3334961-0.1591797-0.5522461-0.1591797
			c-0.2119141,0-0.3950195,0.0576172-0.5498047,0.171875c-0.1542969,0.1142578-0.2626953,0.265625-0.3251953,0.453125h1.7294922
			C38.7242432,34.208313,38.6236572,34.0530396,38.4742432,33.9475708z"/>
	</g>
</g>
</svg>
